<?xml version="1.0" standalone="no"?>
<!DOCTYPE svg PUBLIC "-//W3C//DTD SVG 20010904//EN"
 "http://www.w3.org/TR/2001/REC-SVG-20010904/DTD/svg10.dtd">
<svg version="1.0" xmlns="http://www.w3.org/2000/svg"
 width="1254.000000pt" height="1254.000000pt" viewBox="0 0 1254.000000 1254.000000"
 preserveAspectRatio="xMidYMid meet">
<metadata>
Created by potrace 1.16, written by Peter Selinger 2001-2019
</metadata>
<g transform="translate(0.000000,1254.000000) scale(0.100000,-0.100000)"
fill="#000000" stroke="none">
<path d="M0 6270 l0 -6270 6270 0 6270 0 0 6270 0 6270 -6270 0 -6270 0 0
-6270z m6825 6185 c876 -85 1738 -358 2450 -777 316 -186 520 -327 805 -557
232 -186 529 -473 754 -726 874 -985 1414 -2224 1552 -3560 25 -244 26 -896 1
-1150 -42 -423 -112 -785 -231 -1193 -325 -1105 -1005 -2168 -1856 -2899 -578
-496 -1282 -911 -1946 -1148 -570 -203 -1095 -316 -1650 -356 -197 -13 -804
-7 -979 11 -1103 111 -2094 486 -2990 1128 -554 398 -979 812 -1378 1345 -601
799 -993 1720 -1156 2712 -46 279 -59 444 -67 820 -18 780 67 1340 316 2085
102 308 185 511 310 760 257 514 534 926 909 1355 913 1044 1890 1668 3101
1979 421 108 779 163 1235 190 134 8 670 -4 820 -19z"/>
<path d="M5960 12253 c-1058 -74 -2041 -402 -2861 -954 -751 -506 -1446 -1234
-1899 -1988 -321 -536 -526 -1037 -690 -1686 -203 -806 -222 -1677 -54 -2530
53 -271 149 -616 244 -875 445 -1222 1261 -2246 2380 -2985 774 -512 1644
-820 2630 -931 210 -24 759 -30 1010 -10 976 74 1854 364 2680 884 631 397
1130 853 1562 1425 617 819 1014 1751 1167 2737 71 462 90 1029 46 1440 -139
1324 -630 2462 -1490 3460 -390 453 -940 908 -1490 1233 -180 106 -561 296
-735 365 -565 226 -1189 369 -1792 412 -132 9 -594 11 -708 3z m399 -1516 c42
-78 320 -592 682 -1261 l168 -310 -32 -21 c-18 -12 -142 -86 -277 -165 -909
-532 -1615 -949 -2098 -1239 -136 -82 -249 -147 -251 -145 -5 4 223 424 566
1044 175 317 257 468 416 765 296 555 768 1415 777 1415 3 0 25 -37 49 -83z
m1190 -2214 c52 -98 195 -365 319 -593 345 -636 352 -649 352 -659 0 -5 -169
-115 -376 -246 l-376 -238 -26 22 c-79 63 -252 170 -357 221 -444 217 -906
252 -1392 104 -291 -88 -538 -234 -767 -455 -312 -300 -516 -691 -588 -1124
-22 -134 -16 -435 12 -590 13 -71 24 -141 24 -154 1 -21 -41 -50 -319 -223
-1080 -674 -1468 -917 -1534 -960 -41 -26 -76 -46 -78 -44 -4 4 301 578 592
1111 78 143 190 350 250 460 88 162 348 642 566 1040 21 39 92 169 157 290
l120 220 489 299 c582 356 1679 1014 2708 1624 66 39 122 72 125 72 3 0 48
-80 99 -177z m-1033 -1467 c371 -63 709 -239 970 -507 259 -268 423 -573 499
-931 122 -574 -64 -1200 -484 -1632 -475 -487 -1156 -663 -1772 -456 -137 46
-328 140 -459 227 -163 108 -367 313 -474 476 -83 126 -168 288 -211 402 -41
110 -92 320 -106 435 -16 139 -6 404 20 530 133 651 578 1170 1183 1378 142
49 278 81 388 92 115 12 335 4 446 -14z m2100 -513 c209 -393 485 -907 594
-1108 53 -99 119 -220 145 -270 69 -130 178 -332 250 -465 34 -63 107 -198
162 -300 114 -210 392 -722 631 -1162 89 -163 162 -301 162 -307 0 -8 -576
-11 -2015 -11 -1108 0 -2015 4 -2015 8 0 4 15 16 33 27 17 10 124 78 237 150
183 117 498 319 665 426 33 21 227 144 430 273 204 129 409 260 457 291 l87
56 -127 208 c-169 277 -153 256 -181 242 -12 -7 -25 -11 -27 -8 -3 2 9 46 25
96 56 172 75 318 75 571 0 188 -4 245 -22 344 -44 236 -152 505 -286 711 -31
47 -56 90 -56 95 0 13 620 400 632 394 3 -2 68 -120 144 -261z m-3981 -2317
c95 -163 277 -370 435 -496 244 -194 525 -328 823 -391 l108 -23 -126 -80
c-69 -45 -207 -134 -306 -198 l-180 -118 -1497 0 c-1264 0 -1494 2 -1482 14
14 12 470 300 830 523 80 49 381 237 670 417 289 181 557 348 595 372 39 24
75 44 81 44 6 0 28 -29 49 -64z"/>
<path d="M6091 6990 c-196 -21 -376 -72 -559 -160 -340 -164 -596 -408 -776
-741 -260 -482 -272 -1073 -31 -1575 267 -555 804 -932 1406 -985 286 -25 564
31 844 171 194 97 302 176 455 329 143 144 230 266 320 446 80 162 120 276
157 454 24 113 26 148 26 336 1 193 -2 220 -27 333 -36 162 -74 278 -135 406
-244 518 -719 883 -1264 971 -116 19 -312 26 -416 15z m407 -154 c46 -8 118
-25 160 -37 99 -27 283 -106 300 -127 17 -22 16 -255 -3 -413 -24 -210 -78
-464 -137 -649 -11 -36 -23 -69 -25 -73 -3 -4 -30 29 -62 75 -124 183 -230
312 -431 527 -180 192 -453 418 -638 526 l-76 44 55 24 c125 56 263 92 464
121 58 9 311 -3 393 -18z m-923 -272 c159 -99 239 -156 355 -251 104 -86 380
-356 380 -372 0 -5 -26 -12 -57 -16 -153 -18 -484 -80 -618 -115 -318 -83
-648 -221 -853 -357 -46 -30 -85 -53 -88 -50 -3 3 4 56 15 119 67 366 202 629
450 879 125 125 274 242 299 234 7 -2 60 -34 117 -71z m1584 -11 c328 -267
527 -592 606 -991 39 -194 49 -171 -117 -283 -195 -130 -394 -229 -613 -306
-78 -27 -327 -94 -332 -89 -2 2 11 36 28 77 225 525 367 1133 369 1582 0 26 3
47 6 47 4 0 28 -17 53 -37z m-1402 -865 c-3 -7 -28 -65 -55 -128 -212 -496
-342 -1055 -342 -1472 0 -71 -3 -128 -7 -128 -13 0 -197 172 -262 244 -216
240 -377 618 -397 933 l-7 99 114 74 c227 147 486 261 789 345 178 50 174 49
167 33z m2033 -536 c0 -32 -9 -108 -20 -168 -74 -412 -267 -742 -575 -983
l-107 -84 -81 39 c-104 50 -341 208 -481 320 -104 83 -360 323 -353 330 2 2
70 15 153 29 168 29 251 49 439 105 403 121 686 247 940 420 39 26 73 48 78
49 4 0 7 -25 7 -57z m-1935 -377 c194 -256 473 -527 745 -723 90 -64 315 -202
331 -202 50 0 -112 -81 -247 -123 -147 -47 -246 -60 -424 -60 -111 0 -196 6
-260 17 -123 22 -304 83 -418 140 l-90 45 -7 88 c-20 240 58 739 171 1092 2 7
29 -26 60 -75 30 -49 93 -138 139 -199z"/>
</g>
</svg>
